<mxfile host="app.diagrams.net" agent="Mozilla/5.0 (X11; Linux x86_64) AppleWebKit/537.36 (KHTML, like Gecko) Chrome/128.0.0.0 Safari/537.36" version="24.8.4">
  <diagram name="Page-1" id="3XYw_itv9GH--WRUSs52">
    <mxGraphModel dx="1195" dy="656" grid="1" gridSize="10" guides="1" tooltips="1" connect="1" arrows="1" fold="1" page="1" pageScale="1" pageWidth="850" pageHeight="1100" math="0" shadow="0">
      <root>
        <mxCell id="0" />
        <mxCell id="1" parent="0" />
        <mxCell id="hFQVWKhXuX3PQQcwiS1q-6" value="" style="rounded=0;whiteSpace=wrap;html=1;fillColor=#f5f5f5;fontColor=#333333;strokeColor=#666666;dashed=1;" vertex="1" parent="1">
          <mxGeometry x="530" y="180" width="230" height="460" as="geometry" />
        </mxCell>
        <mxCell id="hFQVWKhXuX3PQQcwiS1q-3" value="" style="rounded=0;whiteSpace=wrap;html=1;" vertex="1" parent="1">
          <mxGeometry x="555" y="200" width="180" height="110" as="geometry" />
        </mxCell>
        <mxCell id="hFQVWKhXuX3PQQcwiS1q-18" value="" style="triangle;whiteSpace=wrap;html=1;rotation=-90;fillColor=#dae8fc;strokeColor=#6c8ebf;" vertex="1" parent="1">
          <mxGeometry x="630" y="210" width="30" height="40" as="geometry" />
        </mxCell>
        <mxCell id="hFQVWKhXuX3PQQcwiS1q-19" value="" style="triangle;whiteSpace=wrap;html=1;rotation=-90;fillColor=#dae8fc;strokeColor=#6c8ebf;" vertex="1" parent="1">
          <mxGeometry x="570" y="210" width="30" height="40" as="geometry" />
        </mxCell>
        <mxCell id="hFQVWKhXuX3PQQcwiS1q-20" value="" style="triangle;whiteSpace=wrap;html=1;rotation=-90;" vertex="1" parent="1">
          <mxGeometry x="690" y="210" width="30" height="40" as="geometry" />
        </mxCell>
        <mxCell id="hFQVWKhXuX3PQQcwiS1q-21" value="" style="triangle;whiteSpace=wrap;html=1;rotation=-90;" vertex="1" parent="1">
          <mxGeometry x="570" y="250" width="30" height="40" as="geometry" />
        </mxCell>
        <mxCell id="hFQVWKhXuX3PQQcwiS1q-22" value="" style="triangle;whiteSpace=wrap;html=1;rotation=-90;" vertex="1" parent="1">
          <mxGeometry x="630" y="250" width="30" height="40" as="geometry" />
        </mxCell>
        <mxCell id="hFQVWKhXuX3PQQcwiS1q-23" value="" style="triangle;whiteSpace=wrap;html=1;rotation=-90;" vertex="1" parent="1">
          <mxGeometry x="690" y="250" width="30" height="40" as="geometry" />
        </mxCell>
        <mxCell id="hFQVWKhXuX3PQQcwiS1q-25" value="&lt;font style=&quot;font-size: 30px;&quot;&gt;a&lt;/font&gt;" style="ellipse;whiteSpace=wrap;html=1;aspect=fixed;fillColor=#dae8fc;strokeColor=#6c8ebf;" vertex="1" parent="1">
          <mxGeometry x="50" y="250" width="80" height="80" as="geometry" />
        </mxCell>
        <mxCell id="hFQVWKhXuX3PQQcwiS1q-26" value="&lt;font style=&quot;font-size: 30px;&quot;&gt;b&lt;/font&gt;" style="ellipse;whiteSpace=wrap;html=1;aspect=fixed;fillColor=#e1d5e7;strokeColor=#9673a6;" vertex="1" parent="1">
          <mxGeometry x="50" y="360" width="80" height="80" as="geometry" />
        </mxCell>
        <mxCell id="hFQVWKhXuX3PQQcwiS1q-27" value="" style="endArrow=classic;html=1;rounded=0;entryX=0;entryY=0.5;entryDx=0;entryDy=0;" edge="1" parent="1" target="hFQVWKhXuX3PQQcwiS1q-3">
          <mxGeometry width="50" height="50" relative="1" as="geometry">
            <mxPoint x="130" y="290" as="sourcePoint" />
            <mxPoint x="180" y="240" as="targetPoint" />
          </mxGeometry>
        </mxCell>
        <mxCell id="hFQVWKhXuX3PQQcwiS1q-31" value="" style="rounded=0;whiteSpace=wrap;html=1;" vertex="1" parent="1">
          <mxGeometry x="555" y="345" width="180" height="175" as="geometry" />
        </mxCell>
        <mxCell id="hFQVWKhXuX3PQQcwiS1q-33" value="" style="rounded=0;whiteSpace=wrap;html=1;" vertex="1" parent="1">
          <mxGeometry x="570" y="360" width="60" height="60" as="geometry" />
        </mxCell>
        <mxCell id="hFQVWKhXuX3PQQcwiS1q-34" value="" style="rounded=0;whiteSpace=wrap;html=1;" vertex="1" parent="1">
          <mxGeometry x="660" y="360" width="60" height="60" as="geometry" />
        </mxCell>
        <mxCell id="hFQVWKhXuX3PQQcwiS1q-35" value="" style="rounded=0;whiteSpace=wrap;html=1;fillColor=#e1d5e7;strokeColor=#9673a6;" vertex="1" parent="1">
          <mxGeometry x="570" y="440" width="60" height="60" as="geometry" />
        </mxCell>
        <mxCell id="hFQVWKhXuX3PQQcwiS1q-36" value="" style="rounded=0;whiteSpace=wrap;html=1;" vertex="1" parent="1">
          <mxGeometry x="660" y="440" width="60" height="60" as="geometry" />
        </mxCell>
        <mxCell id="hFQVWKhXuX3PQQcwiS1q-37" value="" style="triangle;whiteSpace=wrap;html=1;rotation=-90;fillColor=#dae8fc;strokeColor=#6c8ebf;" vertex="1" parent="1">
          <mxGeometry x="585" y="370" width="30" height="40" as="geometry" />
        </mxCell>
        <mxCell id="hFQVWKhXuX3PQQcwiS1q-38" value="" style="triangle;whiteSpace=wrap;html=1;rotation=-90;fillColor=#dae8fc;strokeColor=#6c8ebf;" vertex="1" parent="1">
          <mxGeometry x="675" y="370" width="30" height="40" as="geometry" />
        </mxCell>
        <mxCell id="hFQVWKhXuX3PQQcwiS1q-39" value="" style="endArrow=classic;html=1;rounded=0;" edge="1" parent="1" target="hFQVWKhXuX3PQQcwiS1q-31">
          <mxGeometry width="50" height="50" relative="1" as="geometry">
            <mxPoint x="130" y="395" as="sourcePoint" />
            <mxPoint x="555" y="360" as="targetPoint" />
          </mxGeometry>
        </mxCell>
      </root>
    </mxGraphModel>
  </diagram>
</mxfile>
